<svg xmlns="http://www.w3.org/2000/svg" width="96" height="96" viewBox="0 0 96 96" role="img" aria-label="Athens Weather Forecast icon">
  <defs>
    <linearGradient id="bg" x1="0" y1="0" x2="1" y2="1">
      <stop offset="0%" stop-color="#1a3a5c"/>
      <stop offset="100%" stop-color="#0d2137"/>
    </linearGradient>
  </defs>
  <rect x="4" y="4" width="88" height="88" rx="18" fill="url(#bg)"/>
  <path d="M31 58c0-8 6-14 14-14 1 0 2 0 3 .3 2-6 8-10 15-10 9 0 16 7 16 16 0 .7-.1 1.5-.2 2.2 4 2 7 6.2 7 11.3 0 7-5.7 12.7-12.7 12.7H33.7C26.7 76.5 21 70.8 21 63.8c0-5.3 3.3-9.8 8-11.8.7 0 1.3 0 2 0z" fill="#7ec8e3"/>
  <circle cx="66" cy="31" r="8" fill="#ffd166"/>
  <path d="M45 20l3 6 6 3-6 3-3 6-3-6-6-3 6-3z" fill="#e0e8f0" opacity=".9"/>
</svg>
